<svg width="353" height="92" viewBox="0 0 353 92" fill="none" xmlns="http://www.w3.org/2000/svg">
<path d="M3.6346 72.2686V28.4027H38.4766V37.7399H14.4131V45.9491H30.4554V54.9729H14.4131V72.2686H3.6346ZM46.394 72.2686V28.4027H57.1724V72.2686H46.394ZM66.327 72.2686V28.4027H77.1054V62.7434H100.229V72.2686H66.327ZM108.107 72.2686V28.4027H121.706L132.547 49.0823L143.388 28.4027H156.986V72.2686H146.834V42.3771L132.421 69.1353L118.008 42.2518V72.2686H108.107ZM188.036 72.9579C184.736 72.9579 181.665 72.3939 178.824 71.2659C175.983 70.0962 173.498 68.4877 171.367 66.4407C169.236 64.3518 167.565 61.9496 166.354 59.2341C165.184 56.4769 164.599 53.5107 164.599 50.3356C164.599 47.1606 165.184 44.2153 166.354 41.4998C167.565 38.7425 169.236 36.3404 171.367 34.2933C173.498 32.2044 175.983 30.596 178.824 29.468C181.665 28.2983 184.736 27.7134 188.036 27.7134C191.336 27.7134 194.407 28.2983 197.248 29.468C200.089 30.596 202.574 32.2044 204.705 34.2933C206.836 36.3404 208.486 38.7425 209.656 41.4998C210.867 44.2153 211.473 47.1606 211.473 50.3356C211.473 53.5107 210.867 56.4769 209.656 59.2341C208.486 61.9496 206.836 64.3518 204.705 66.4407C202.574 68.4877 200.089 70.0962 197.248 71.2659C194.407 72.3939 191.336 72.9579 188.036 72.9579ZM188.036 63.0567C189.791 63.0567 191.42 62.7434 192.924 62.1167C194.428 61.4483 195.723 60.5501 196.809 59.4221C197.937 58.2942 198.815 56.9573 199.441 55.4115C200.068 53.824 200.381 52.1321 200.381 50.3356C200.381 48.4975 200.068 46.8055 199.441 45.2597C198.815 43.714 197.937 42.3771 196.809 41.2491C195.723 40.1212 194.428 39.2439 192.924 38.6172C191.42 37.9488 189.791 37.6146 188.036 37.6146C186.281 37.6146 184.652 37.9488 183.148 38.6172C181.644 39.2439 180.328 40.1212 179.2 41.2491C178.114 42.3771 177.258 43.714 176.631 45.2597C176.004 46.8055 175.691 48.4975 175.691 50.3356C175.691 52.1321 176.004 53.824 176.631 55.4115C177.258 56.9573 178.114 58.2942 179.2 59.4221C180.328 60.5501 181.644 61.4483 183.148 62.1167C184.652 62.7434 186.281 63.0567 188.036 63.0567ZM219.084 72.2686V28.4027H241.518C244.526 28.4027 247.2 29.0085 249.539 30.22C251.879 31.3898 253.696 33.04 254.991 35.1706C256.328 37.2594 256.996 39.6616 256.996 42.3771C256.996 45.1344 256.244 47.5992 254.74 49.7717C253.237 51.9441 251.252 53.5942 248.787 54.7222L258.375 72.2686H246.343L238.071 56.2889H229.862V72.2686H219.084ZM229.862 47.5157H240.515C242.187 47.5157 243.523 47.0561 244.526 46.1371C245.57 45.218 246.093 44.0273 246.093 42.5651C246.093 41.1029 245.57 39.9123 244.526 38.9932C243.523 38.0741 242.187 37.6146 240.515 37.6146H229.862V47.5157ZM260.952 72.2686L278.937 28.4027H291.282L309.017 72.2686H297.361L293.35 61.6781H276.243L272.169 72.2686H260.952ZM279.501 53.0929H290.154L284.89 39.0559L279.501 53.0929Z" fill="white"/>
<path d="M316.452 8.4796L314.26 17.0073H309.246L312.819 8.4796H316.452ZM318.394 31V27.697L327.282 18.899C327.622 18.5787 327.892 18.2685 328.092 17.9682C328.293 17.6479 328.443 17.3276 328.543 17.0073C328.643 16.687 328.693 16.3667 328.693 16.0465C328.693 15.3658 328.393 14.8053 327.792 14.3649C327.212 13.9045 326.481 13.6743 325.6 13.6743C324.659 13.6743 323.778 13.8745 322.958 14.2748C322.137 14.6552 321.246 15.3158 320.285 16.2566L317.703 13.1038C318.904 11.9628 320.175 11.102 321.516 10.5214C322.878 9.94092 324.289 9.65066 325.75 9.65066C327.252 9.65066 328.553 9.91089 329.654 10.4314C330.775 10.9318 331.646 11.6425 332.266 12.5633C332.887 13.4641 333.197 14.5251 333.197 15.7462C333.197 16.4068 333.097 17.0474 332.897 17.6679C332.717 18.2685 332.426 18.859 332.026 19.4395C331.626 20.0201 331.105 20.6206 330.465 21.2412L324.399 27.0965L333.497 27.0664V31H318.394ZM335.988 31V27.697L344.876 18.899C345.216 18.5787 345.486 18.2685 345.686 17.9682C345.887 17.6479 346.037 17.3276 346.137 17.0073C346.237 16.687 346.287 16.3667 346.287 16.0465C346.287 15.3658 345.987 14.8053 345.386 14.3649C344.806 13.9045 344.075 13.6743 343.194 13.6743C342.253 13.6743 341.373 13.8745 340.552 14.2748C339.731 14.6552 338.84 15.3158 337.879 16.2566L335.297 13.1038C336.498 11.9628 337.769 11.102 339.11 10.5214C340.472 9.94092 341.883 9.65066 343.344 9.65066C344.846 9.65066 346.147 9.91089 347.248 10.4314C348.369 10.9318 349.24 11.6425 349.86 12.5633C350.481 13.4641 350.791 14.5251 350.791 15.7462C350.791 16.4068 350.691 17.0474 350.491 17.6679C350.311 18.2685 350.02 18.859 349.62 19.4395C349.22 20.0201 348.699 20.6206 348.059 21.2412L341.993 27.0965L351.091 27.0664V31H335.988Z" fill="#F9064F"/>
</svg>
